<svg version="1.2" xmlns="http://www.w3.org/2000/svg" viewBox="0 0 1024 1536" width="1024" height="1536">
	<title>ChatGPT Image Sep 14, 2025, 11_18_01 PM</title>
	<style>
		.s0 { opacity: .87;fill: #ddccb3 } 
	</style>
	<path id="Path 0" fill-rule="evenodd" class="s0" d="m173.36 207c-0.4 0.54-0.6 20.23-0.43 43.75l0.31 42.75-94.24 0.5v5l95.5-0.04c-1.15 5.84-1.48 35.89-1.49 70.54l-0.01 63-94-0.5v7h94c0.05 43.79 0.17 73.71 0.29 94.75l0.21 38.25h-94.5v6h94.5v133.5l-94.5 0.5v6l94.5 0.5v130l-94.5 0.5c-0.39 3.94-0.28 5.3 0 5.57 0.27 0.27 21.65 0.47 47.5 0.46l47-0.03-0.2 133.5c-91.11 0.48-94.33 0.62-94.73 2.25-0.23 0.96-0.12 2.1 0.25 2.53 0.38 0.43 21.83 0.76 47.68 0.75l47-0.03v134h-94.5v7h94.5v132c-12.4 0.15-33.66 0.15-55.25 0.1l-39.25-0.1v6c60.84-0.13 82.1-0.13 86.5-0.08l8 0.08v71.5l5.5 0.5v-72h135v72h6v-72h133c0 55.8 0.34 72.17 0.75 72.38 0.41 0.21 1.76-0.01 3-0.5l2.25-0.88-0.5-71.5c60.45 0.38 90.94 0.49 106.75 0.49l28.75 0.01v72h6v-72c35.26-0.06 65.3-0.05 89.5-0.01 24.2 0.04 44.11 0.17 44.24 0.29 0.13 0.12 0.24 16.31 0.25 35.97l0.01 35.75h5v-72c58.51-0.39 88.89-0.39 105.25-0.25l29.75 0.25 0.5 71.5h6l0.5-71.5c22.86-0.17 42.66-0.17 58.75-0.11l29.25 0.11v-6c-56.19 0.12-75.99 0.12-80.25 0.08l-7.75-0.08v-132l88.5-0.5c0.48-3.88 0.03-5.35-0.69-5.77-0.72-0.42-3.11-0.72-5.31-0.66-2.2 0.06-21.66 0.07-43.25 0.02l-39.25-0.09v-134c87.75-0.5 88.5-0.53 88.5-2.5 0-1.97-0.75-2-44.25-2.25l-44.25-0.25v-134l88.5-0.5 0.5-5.5h-89v-131c67.04 0.1 87.06 0.1 87.75 0.07 0.71-0.04 1.25-1.37 1.25-3.07v-3h-89v-134h88v-6h-88v-133l88.5-0.5v-6l-88.5-0.5v-133l88.5-0.5 0.5-4.5h-89l-0.5-87.5-6.5-0.5c0.04 49.21 0.04 69.01 0.03 75.75l-0.03 12.25-134.5-0.5-0.11-87.5h-5.39v88h-134v-88h-6v88h-135l-0.5-87.5-5.5-0.5-0.5 87.5h-132c-0.23-3.88-0.35-23.56-0.4-46.25l-0.1-41.25h-6v88h-135v-88c-3.8 0-5.23 0.45-5.64 1zm5.64 92h135v133l-67.08 0.25c-36.9 0.14-67.29 0.02-67.53-0.25-0.25-0.27-0.43-30.31-0.42-66.75zm141 0h133v66.5c0 36.57-0.34 66.61-0.75 66.75-0.41 0.14-30.34 0.14-132.25-0.25v-66.5zm139 0h134.97l-0.47 133.02-134.5 0.48-0.09-8c-0.05-4.4-0.08-28.02-0.06-52.5 0.02-24.48 0.06-50.91 0.09-58.75zm141 0h134v133h-134v-66.5zm138.99 0h135.01v133.5l-134.5-0.47-0.25-66.52zm-559.99 140h135v133h-135v-66.5zm141.08 0h132.92v133h-133l0.04-66.5zm138.42 0.01l135.5-0.01v133h-135l-0.13-6.75c-0.07-3.71-0.18-33.63-0.25-66.5zm141.5 0h134v133h-134v-66.5zm139 0h135.5l-0.5 133-66.5 0.25c-36.58 0.14-66.95 0.14-67.5 0-0.65-0.16-1-23.31-1-66.75zm1.05 138.64c0.8-0.29 2.35-0.33 3.45-0.09 1.1 0.23 30.91 0.43 130.5 0.45v134l-66.5 0.25c-36.58 0.14-66.95 0.14-67.5 0-0.65-0.16-1.07-23.62-1.2-67.16-0.17-57.68 0-66.99 1.25-67.45zm-561.05 0.36h135v134h-135v-67zm141.03 0h132.97v134h-133l0.01-67zm138.98 0h135v134h-135l-0.05-6.75c-0.02-3.71-0.07-30.82-0.1-60.25-0.03-29.42-0.01-56.53 0.04-60.25zm141 0h134v134h-134v-67zm-421 140h135v131h-135v-65.5zm141.52 0.65c0.47-0.38 30.36-0.56 131.98-0.15l0.5 130.5h-133l-0.16-64.83c-0.09-35.66 0.21-65.14 0.68-65.52zm138.4 0.1c0.05-0.41 30.46-0.75 135.08-0.75v131h-67.5c-37.12 0-67.52-0.33-67.54-0.75-0.03-0.41-0.07-29.55-0.09-64.75-0.02-35.2 0.01-64.33 0.05-64.75zm141.08-0.75h134v131h-134v-65.5zm139 0h135v131h-135v-65.5zm-557.25 136.75c1.52-0.13 31.89-0.13 132.25 0.25v134h-135v-134zm138.24 0.25h133.01v134l-132.5-0.5-0.25-66.75zm138.51 0h135.5v134h-135.5v-67zm141.5 0h134v134h-134v-67zm138.99 0h135.01v134l-134.5-0.5-0.26-66.75zm-559.98 139h135v134h-135v-67zm140.98 0h133.02v134h-133l-0.01-67zm138.94 0.75c0.04-0.41 30.45-0.75 135.08-0.75v134l-135.23-0.5 0.03-66c0.02-36.3 0.07-66.33 0.12-66.75zm141.08-0.75h134v134h-134v-67zm138.98 0h135.02v134.5l-134.5-0.42-0.26-67.04zm-280.48 140.5l135.5 0.5v132l-12.75 0.07c-7.02 0.03-37.28 0.05-67.25 0.03-29.98-0.01-54.73-0.31-55-0.65-0.28-0.34-0.5-30.16-0.5-66.28zm-279.5 0.5h135v132l-29.25 0.08c-16.09 0.05-34.88 0.1-41.75 0.11-6.88 0.02-24.09-0.01-64-0.19v-66zm141 0h133v132l-32.25 0.13c-17.74 0.08-36.3 0.12-41.25 0.09-4.95-0.03-20.37-0.09-59.5-0.22v-66zm280 0h134v132l-17.25 0.07c-9.49 0.04-33 0.06-52.25 0.05-19.25-0.02-41.64-0.05-64.5-0.12v-66zm139 0h135.5l-0.5 132-17.75 0.1c-9.77 0.05-30.13 0.07-45.25 0.04-15.13-0.03-37.52-0.07-72-0.14v-66z"/>
</svg>