<svg version="1.2" xmlns="http://www.w3.org/2000/svg" viewBox="0 0 141 127" width="141" height="127">
	<title>favicon</title>
	<style>
		.s0 { opacity: .99;fill: #1a1919 } 
		.s1 { opacity: .65;fill: #565757 } 
		.s2 { opacity: .17;fill: #636363 } 
		.s3 { opacity: 1;fill: #f7f7f7 } 
		.s4 { opacity: 1;fill: #7b7b7b } 
		.s5 { opacity: 1;fill: #b3b3b2 } 
	</style>
	<g id="Background">
		<path id="Path 0" class="s0" d="m35.9 28.08c-0.88 0.56-2.35 2.35-3.25 3.97-1.42 2.55-1.65 6.85-1.65 31.45 0 23.11 0.28 29.16 1.5 32 0.85 1.98 2.8 4.15 4.5 5 2.45 1.22 8.06 1.5 30.5 1.5 22.22 0 28.17-0.29 31-1.5 1.98-0.85 4.15-2.8 5-4.5 1.23-2.46 1.5-8.17 1.5-31.5 0-23.33-0.27-29.04-1.5-31.5-0.83-1.65-2.51-3.68-3.75-4.51-1.88-1.26-7.13-1.5-32.25-1.47-18.6 0.03-30.61 0.43-31.6 1.06z"/>
		<path id="Path 1" class="s1" d="m53 26.75c7.98 0.17 20.58 0.17 28 0 7.42-0.17 0.9-0.31-14.5-0.31-15.4 0-21.48 0.14-13.5 0.31z"/>
		<path id="Path 2" class="s2" d="m95 26.66c0.83 0.27 1.69 0.23 1.92-0.08 0.23-0.32-0.45-0.54-1.5-0.5-1.38 0.06-1.49 0.22-0.42 0.58zm5.4 2.34c0.33 0.55 0.82 1 1.1 1 0.28 0 0.28-0.45 0-1-0.28-0.55-0.77-1-1.1-1-0.33 0-0.33 0.45 0 1zm-70.46 12c0 0.83 0.35 1.16 0.78 0.75 0.43-0.41 0.43-1.09 0-1.5-0.43-0.41-0.78-0.08-0.78 0.75zm75.47 16c0 9.63 0.15 13.45 0.33 8.5 0.19-4.95 0.19-12.83 0-17.5-0.18-4.67-0.33-0.63-0.33 9zm-0.36 20.5c0.06 1.1 0.22 1.41 0.35 0.69 0.13-0.72 0.08-1.62-0.11-2-0.19-0.38-0.3 0.21-0.24 1.31z"/>
		<path id="Path 3" class="s3" d="m46 41c0 0.55 0.9 1 2 1 1.93 0 2 0.67 2 18v18c-5.4 2.87-5.27 2.92 1.25 2.96 3.71 0.02 6.75-0.18 6.75-0.46 0-0.28-1.13-0.95-2.5-1.5l-2.5-1c0-24.03 0.34-31 0.75-31.01 0.41 0 3.26 7.54 6.32 16.75 3.42 10.29 6.13 16.87 7 17.05 1.03 0.21 3.09-4.56 7.33-17 3.24-9.51 6.34-17.74 6.88-18.29 0.65-0.66 0.76 0.2 0.34 2.5-0.35 1.92-0.63 9.58-0.6 17 0.04 13.06-0.03 13.54-2.24 14.68-1.97 1.02-1.37 1.19 4.47 1.25 3.88 0.04 6.75-0.36 6.75-0.93 0-0.55-0.9-1.22-2-1.5-1.9-0.48-2-1.33-2-18 0-16.67 0.1-17.52 2-18 1.1-0.27 2-0.95 2-1.5 0-0.55-2.25-1-5-1-3.86 0-5.14 0.4-5.61 1.75-0.34 0.96-3 8.72-5.92 17.25l-5.3 15.5-11.17-34.5c-8.52 0-11 0.45-11 1z"/>
		<path id="Path 4" class="s4" d="m48 42.66c0.83 0.27 1.69 0.23 1.92-0.08 0.23-0.32-0.45-0.54-1.5-0.5-1.38 0.06-1.49 0.22-0.42 0.58zm38.36 0.33c-0.43 0.59-0.05 0.79 0.95 0.5 0.93-0.27 1.69-0.71 1.69-0.99 0-0.27-0.43-0.5-0.95-0.5-0.52 0-1.28 0.44-1.69 0.99zm-5.42 4.01c0 0.83 0.35 1.16 0.78 0.75 0.43-0.41 0.43-1.09 0-1.5-0.43-0.41-0.78-0.07-0.78 0.75zm-27.54 15c0 8.53 0.16 11.9 0.34 7.5 0.19-4.4 0.19-11.37 0-15.5-0.18-4.12-0.34-0.53-0.34 8z"/>
		<path id="Path 5" class="s5" d="m80.3 46.24q-0.81 1.25 0.45 0.5c0.69-0.41 1.25-0.97 1.25-1.24 0-0.28-0.2-0.5-0.45-0.5-0.25 0-0.81 0.56-1.25 1.24z"/>
	</g>
</svg>