<svg version="1.2" xmlns="http://www.w3.org/2000/svg" viewBox="0 0 475 355" width="475" height="355">
	<title>markveil-monogram-inverse</title>
	<style>
		.s0 { fill: #000000 } 
		.s1 { fill: #d9dada } 
	</style>
	<g id="Background">
		<path id="Path 0" class="s0" d="m0 177.5v177.5h475v-355h-475z"/>
		<path id="Path 1" class="s1" d="m147.48 81.75c0.02 2.35 0.89 3.18 6.02 5.75 4.38 2.19 6.47 3.94 7.75 6.5 1.6 3.21 1.75 8.34 1.75 62.75 0 46.55-0.28 59.95-1.31 62.5-0.72 1.79-2.41 4.04-3.75 5.01-1.34 0.96-4.58 2.09-7.21 2.5-4.56 0.71-4.76 0.88-4.75 3.99l0.02 3.25h45c0-6.85-0.18-7.03-4.25-7.62-2.34-0.34-5.49-1.24-7-2-1.51-0.76-3.54-2.6-4.5-4.08-1.6-2.48-1.78-7.39-2.05-58.75-0.17-30.83-0.12-55.83 0.12-55.55 0.23 0.28 3.59 8.15 7.47 17.5 3.87 9.35 12.21 29.6 18.52 45 6.32 15.4 15.54 37.9 20.49 50 4.94 12.1 14.26 35.05 20.71 51 6.44 15.95 13.38 33.05 15.42 38l3.7 9c7.65 0.43 10.32 0.06 10.87-0.55 0.55-0.61 8.47-19.19 17.59-41.28l16.59-40.17 29.32-0.5c0-6.77-0.24-7.04-3.75-7.6-2.06-0.33-4.87-1.17-6.25-1.88-1.37-0.7-3.16-2.57-3.98-4.15-1.25-2.43-1.48-11.48-1.5-58.87-0.01-30.8 0.3-58.92 0.68-62.5 0.53-4.83 1.3-7.08 3-8.78 1.27-1.25 4.44-2.94 7.05-3.75 4.28-1.33 4.75-1.76 4.75-4.47v-3l-39.5 0.02c-7.57 19.75-16.71 43.26-25.18 64.98-8.48 21.72-17.98 45.91-21.12 53.75-3.13 7.84-6 13.91-6.37 13.5-0.36-0.41-3.66-8.4-7.32-17.75-3.66-9.35-7.97-20.38-9.57-24.5-1.6-4.13-10.12-25.61-18.92-47.75-8.81-22.14-16.02-40.7-16.02-41.25 0-0.64-7.76-1-21.27-1h-21.27z"/>
		<path id="Path 2" class="s0" d="m272 164.45c-12.38 31.15-22.95 57.74-23.5 59.08-0.77 1.88-0.5 3.61 1.21 7.7 1.21 2.9 6.54 16.3 11.83 29.77 5.3 13.48 9.87 24.95 10.17 25.5 0.3 0.55 3.66-6.42 7.47-15.5 3.81-9.07 8.48-20.32 10.38-25 1.9-4.67 3.46-9.06 3.45-9.75-0.01-0.69-1.02-1.47-2.26-1.74-1.24-0.28-5.18-0.61-8.75-0.75-6.42-0.26-6.5-0.3-6.82-3.26-0.3-2.93-0.16-3.03 6-4.37 4.84-1.05 6.98-2.11 9.11-4.5 1.68-1.89 3.17-5.11 3.76-8.13 0.58-2.97 0.87-25.43 0.71-55.35l-0.26-50.35z"/>
	</g>
</svg>