<svg version="1.2" xmlns="http://www.w3.org/2000/svg" viewBox="0 0 827 249" width="827" height="249">
	<title>markveil- woodmark</title>
	<style>
		.s0 { opacity: .99;fill: #1b1a1a } 
	</style>
	<path id="Path 0" fill-rule="evenodd" class="s0" d="m84.27 65.5l14.12 37.74c7.76 20.76 14.38 37.19 14.72 36.5 0.33-0.68 6.18-17.77 25.39-74.72l12.75-0.01c12.09-0.01 12.75 0.09 12.75 1.99q0 2-3.5 3.5c-1.93 0.82-3.95 2.4-4.5 3.5-0.55 1.1-1 5.04-1 8.75 0 3.71 0.69 15.3 1.53 25.75 0.84 10.45 2.19 25.53 2.98 33.5 1.12 11.16 1.86 14.91 3.22 16.28 0.97 0.98 2.11 1.77 2.52 1.75 0.41-0.02 1.88 0.42 3.25 0.97 1.82 0.73 2.36 1.55 2 3-0.48 1.91-1.33 2-19 2-10.18 0-18.51-0.34-18.52-0.75-0.01-0.41 0.56-1.51 1.25-2.43 0.7-0.92 2.35-1.82 3.67-2 1.32-0.18 3.26-1.45 4.32-2.82 1.84-2.4 1.87-3.32 0.73-23-0.66-11.28-1.74-27.25-2.41-35.5-0.67-8.25-1.48-14.33-1.8-13.5-0.33 0.82-6.39 19.05-26.35 79.5l-7.89 0.66-2.4-6.33c-1.32-3.48-7.79-20.73-14.37-38.33-6.59-17.6-12.38-32.45-12.87-33-0.53-0.59-0.88 3.5-0.86 10 0.01 6.05-0.49 21.8-2.28 59l2.39 1.79c1.31 0.99 3.4 1.78 4.64 1.75 1.74-0.03 2.25 0.52 2.25 4.96h-14c-13.69 0-13.99-0.05-13.75-2.12 0.17-1.43 1.37-2.5 3.66-3.25 1.87-0.62 4.21-2.26 5.19-3.63 1.36-1.91 2.03-5.91 2.83-17 0.58-7.98 1.54-24.63 2.15-37 0.61-12.38 0.85-23.94 0.55-25.71-0.33-1.91-1.68-4.04-3.34-5.28-1.54-1.14-3.58-2.06-4.54-2.04-0.96 0.01-1.97-0.42-2.25-0.97-0.27-0.55-0.27-1.69 0-2.53 0.43-1.29 2.58-1.48 26.77-0.97zm136.23-0.42l6.75-0.04c6.44-0.04 6.8 0.08 7.86 2.71 0.61 1.51 7.09 18.95 14.39 38.75 7.31 19.8 14.45 38.93 15.87 42.5 1.42 3.57 3.6 7.48 4.86 8.67 1.25 1.19 3.85 2.57 5.77 3.06 1.93 0.49 3.39 1.21 3.25 1.58-0.14 0.38-0.25 1.37-0.25 2.19 0 1.28-2.83 1.5-39 1.5l0.25-2.24c0.15-1.33 1.06-2.39 2.25-2.6 1.1-0.2 2.8-1.11 3.78-2.01 0.98-0.91 1.78-2.55 1.77-3.65 0-1.1-1.7-6.62-7.55-22.52l-34-0.05-2.7 7.29c-1.49 4-3.17 9.19-3.75 11.53-0.71 2.86-0.72 4.91-0.05 6.25 0.57 1.14 2.71 2.43 5 3 2.95 0.74 3.93 1.46 3.74 2.75-0.24 1.56-1.82 1.78-14.5 2-13.66 0.24-14.24 0.17-14.24-1.75 0-1.31 1.12-2.47 3.25-3.36 1.79-0.75 4-2.21 4.91-3.25 0.92-1.04 4.59-10.21 8.15-20.39 3.56-10.18 10.46-30.52 15.33-45.21zm-5.5 41.42c-3.3 9.9-6 18.11-6 18.25 0 0.14 6.3 0.25 14 0.25 7.7 0 14.01-0.34 14.02-0.75 0-0.41-2.62-7.95-5.84-16.75-3.22-8.8-6.57-17.35-7.44-19-1.17-2.22-1.73-2.61-2.16-1.5-0.32 0.82-3.28 9.6-6.58 19.5zm75.5-41.61l28 0.34c26.6 0.33 28.3 0.47 34 2.7 3.79 1.49 7.72 4.06 10.65 6.96 3.16 3.14 5.03 6.05 5.86 9.11 0.72 2.65 0.97 6.96 0.62 10.5-0.37 3.76-1.53 7.59-3.11 10.25-1.38 2.34-4.43 5.62-6.77 7.3-2.33 1.68-5.94 3.59-8.02 4.25-2.07 0.66-3.76 1.31-3.75 1.45 0.01 0.14 4.69 7.79 10.4 17 5.71 9.21 11.67 18.25 13.25 20.08 1.65 1.91 5 4.09 7.87 5.13 3.56 1.29 5 2.35 5 3.68 0 1.71-0.96 1.86-12.04 1.86-9.4 0-12.59-0.36-14.5-1.61-1.35-0.89-8.08-10.92-27.46-42.96l-12.5 0.07-0.01 15.75c-0.01 8.66 0.43 17.1 0.97 18.75 0.55 1.65 2.13 3.56 3.52 4.25 1.39 0.69 3.42 1.25 4.52 1.25 1.49 0 1.94 0.58 1.75 2.25-0.24 2.23-0.38 2.25-19 2.5-18.16 0.24-18.75 0.19-18.75-1.75 0-1.32 1.11-2.45 3.25-3.31 1.79-0.72 4.04-2.41 5.01-3.75 1.6-2.23 1.76-5.79 1.77-40.44 0-22.52-0.4-39.22-0.99-41-0.54-1.65-2.13-3.56-3.51-4.25-1.39-0.69-3.2-1.25-4.03-1.25-0.87 0-1.6-1.06-1.75-2.56zm27.5 49.12c13.57-0.89 19.25-1.68 21.39-2.33 2.14-0.65 5.18-2.64 6.75-4.42 1.58-1.79 3.36-5.17 3.98-7.5 0.61-2.34 0.91-6.73 0.66-9.75-0.24-3.03-1.31-7.08-2.37-9-1.28-2.31-3.63-4.33-6.92-5.94-3.82-1.87-7.12-2.54-14.09-2.89l-9.11-0.45zm76.84-49h19.58c19.3 0 19.58 0.03 19.33 2.1-0.17 1.45-1.48 2.53-4.25 3.5-2.2 0.77-4.33 1.96-4.73 2.65-0.41 0.69-0.82 2.83-0.93 4.75-0.1 1.93-0.16 4.63-0.13 6 0.03 1.38 0.09 8.58 0.22 29.5l2.24-3c1.23-1.65 4.58-5.7 7.44-9 2.86-3.3 8.62-10.27 12.79-15.5 4.38-5.48 7.6-10.45 7.6-11.75 0-1.62-0.98-2.67-3.5-3.75-2.71-1.16-3.39-1.95-3-3.5 0.48-1.89 1.33-2 32.5-2v2.5c0 2.06-0.58 2.59-3.25 2.99-1.79 0.27-4.67 1.51-6.41 2.75-1.73 1.25-8.93 8.93-28.84 31.9l8.46 12.18c4.65 6.7 10.27 14.8 12.5 18.01 2.22 3.2 6.63 9.39 9.79 13.75 3.16 4.36 6.99 8.55 8.5 9.33 1.51 0.77 4.44 1.67 6.5 2 3.18 0.5 3.75 0.98 3.75 5.59l-14.39-0.25c-13.98-0.24-14.44-0.32-16.48-2.75-1.15-1.37-8.51-12.07-16.36-23.77-7.85-11.71-14.83-21.27-15.52-21.25-0.69 0.01-1.93 1.04-2.76 2.27-1.2 1.79-1.5 5.78-1.5 19.5 0.01 15.91 0.17 17.41 2.01 19.25 1.1 1.1 3.13 2 4.5 2 2 0 2.5 0.5 2.5 5h-18.5c-15.55 0-18.58-0.24-19-1.5-0.27-0.82-0.27-1.95 0-2.5 0.28-0.55 1.65-1 3.05-1 1.4 0 3.65-1.12 7.45-5l-0.25-40.96c-0.21-34.81-0.47-41.2-1.75-42.54-0.82-0.86-3.07-1.91-5-2.32-2.55-0.55-3.59-1.35-3.83-2.96zm113.58 0c19.04 0 20.56 0.13 20.32 1.75-0.15 0.96-1.95 2.53-4 3.5-2.06 0.96-3.96 2.65-4.24 3.75-0.27 1.1 1.04 6.38 2.91 11.75 1.88 5.36 7.61 21.11 12.75 34.99 5.14 13.89 9.61 24.91 9.93 24.5 0.32-0.41 5.43-14.47 11.36-31.24 5.92-16.78 11.22-32.3 11.78-34.5 0.71-2.83 0.68-4.67-0.11-6.25-0.71-1.44-2.48-2.54-4.87-3.04-2.84-0.59-3.81-1.32-4-3-0.25-2.2-0.15-2.21 14.75-2.21 14.71 0 15 0.04 14.75 2.12-0.17 1.43-1.37 2.49-3.66 3.25-1.87 0.62-4.23 2.25-5.25 3.63-1.01 1.37-5.47 12.62-9.9 25-4.42 12.37-11.19 31.27-15.03 42-3.84 10.72-7.53 20.77-8.19 22.32-1.17 2.71-1.47 2.81-13.03 2.18l-11.73-31c-6.45-17.05-14.05-37.08-16.88-44.5-2.83-7.43-5.81-14.52-6.62-15.75-0.85-1.32-3.44-2.82-6.21-3.6-3.55-1.01-4.83-1.9-5.08-3.5-0.33-2.15-0.24-2.15 20.25-2.15zm90.42 0l67.66-0.02 0.75 8.26c0.4 4.54 0.74 9.72 0.75 11.51 0 2.41-0.45 3.26-1.75 3.29-1.03 0.02-2.36-1.32-3.24-3.25-0.83-1.81-2.63-4.59-4-6.18-1.38-1.58-3.86-3.58-5.51-4.43-2.07-1.07-6.63-1.65-26.5-2.18v38h9c4.95 0 10.13-0.45 11.5-1 1.46-0.59 3.23-2.66 4.25-4.99 1.08-2.46 2.42-4 3.5-4 1.59-0.01 1.75 1.36 1.75 14.99 0 13.61-0.16 15-1.75 15.02-1.15 0.01-2.15-1.26-2.94-3.75-0.66-2.08-2.17-4.67-3.35-5.77-1.81-1.68-3.77-2.04-21.96-2.5l-0.01 41.5 11.75-0.8c6.47-0.43 13.34-1.21 15.26-1.72 1.93-0.52 5.25-2.41 7.4-4.21 2.14-1.8 4.95-5.41 6.25-8.02 1.63-3.3 2.96-4.75 4.35-4.75 1.41 0 2 0.66 2.01 2.25 0 1.23-0.51 6.07-1.13 10.75-0.62 4.67-1.52 9.51-2.88 13h-71l0.25-2.2c0.18-1.54 1.2-2.42 3.5-3 1.79-0.44 4.17-2.04 5.29-3.55 1.96-2.66 2.03-4.08 2-41-0.03-31.73-0.29-38.85-1.54-41.75-1.2-2.81-2.24-3.66-5.25-4.29-2.8-0.58-3.83-1.34-4.08-3zm103.14 0c18.35 0 19.02 0.07 19.02 2 0 1.4-1.25 2.53-4.15 3.75-2.37 1-4.52 2.72-5 4-0.47 1.24-0.85 19.8-0.85 41.25 0 24 0.39 39.77 1 41 0.55 1.1 2.83 2.56 5.06 3.25 3.18 0.98 3.99 1.68 3.75 3.25-0.3 1.92-1.08 2-19.31 2-18.23 0-19-0.08-19-1.97 0-1.43 1.04-2.24 3.82-3 2.09-0.56 4.46-1.93 5.26-3.03 1.21-1.67 1.45-8.5 1.44-41.25-0.01-24.09-0.41-40.12-1.02-41.5-0.56-1.24-2.13-2.81-3.5-3.5-1.38-0.69-3.17-1.25-4-1.25-0.82 0-1.72-0.45-2-1-0.27-0.55-0.29-1.67-0.02-2.5 0.4-1.26 3.46-1.5 19.5-1.5zm29.86 0h19.58c19.56 0 19.58 0 19.33 2.19-0.17 1.51-1.19 2.43-3.25 2.94-1.65 0.42-3.9 1.73-5 2.92-1.92 2.08-2.01 3.73-2.25 42.31-0.16 24.53 0.12 40.73 0.71 41.64 0.78 1.22 3.08 1.45 12.25 1.21 8.17-0.22 12.4-0.8 15.29-2.09 2.2-0.98 5.38-3.32 7.06-5.2 1.68-1.88 3.71-5.11 4.5-7.18 1.08-2.82 2.01-3.76 3.69-3.75 1.89 0.01 2.24 0.53 2.16 3.26-0.06 1.79-0.85 7.53-3.41 22.25l-70.5 0.5v-2.5c0-2.06 0.57-2.58 3.25-2.96 1.79-0.26 4.03-1.27 4.97-2.25 1.56-1.62 1.75-5.57 2-42.43 0.27-39.46 0.22-40.71-1.72-42.81-1.1-1.19-3.35-2.5-5-2.92-2.02-0.5-3.11-1.46-3.33-2.94z"/>
</svg>